# xmcd
#
# Track frame offsets:
#	150
#	17227
#	38267
#	54640
#	80005
#	102675
#	123037
#	142125
#	158627
#	178657
#	198347
#	218980
#
# Disc length: 3147 seconds
#
# Revision: 1
# Processed by: cddbd v1.5PL3 Copyright (c) Steve Scherf et al.
# Submitted via: CDex 1.50Beta5
#
DISCID=a50c490c
DTITLE=麻績村まゆ子 - すくすく
DYEAR=2002
DGENRE=Pop
TTITLE0=Grape
TTITLE1=Face To Face!
TTITLE2=ぶるーみんぐすまいる
TTITLE3=かわいい?ねぇダーリン
TTITLE4=Distance-Close
TTITLE5=ほほえみのとなりへ・・・。
TTITLE6=いい感じ宇宙
TTITLE7=ドリルでルンルン クルルンルン
TTITLE8=ひまわり畑
TTITLE9=ゆうきのおまもり
TTITLE10=ペンギン皆兄弟
TTITLE11=あ・こ・が・れ
EXTD=
EXTT0=
EXTT1=
EXTT2=
EXTT3=
EXTT4=
EXTT5=
EXTT6=
EXTT7=
EXTT8=
EXTT9=
EXTT10=
EXTT11=
PLAYORDER=
